first trial
nRows=26
nColumns=38

# SIMM Motion File Header:
name Sujet_06_velo100.mvnx
datacolumns 38
datarows 26
otherdata 1
range 7.7660 8.1830
endheader
time pelvis_tilt  pelvis_list  pelvis_rotation  pelvis_tx  pelvis_ty  pelvis_tz  hip_flexion_r  hip_adduction_r  hip_rotation_r  knee_angle_r  ankle_angle_r  subtalar_angle_r  mtp_angle_r  hip_flexion_l  hip_adduction_l  hip_rotation_l  knee_angle_l  ankle_angle_l  subtalar_angle_l  mtp_angle_l  lumbar_extension  lumbar_bending  lumbar_rotation  arm_flex_r  arm_add_r  arm_rot_r  elbow_flex_r  pro_sup_r  wrist_flex_r  wrist_dev_r  arm_flex_l  arm_add_l  arm_rot_l  elbow_flex_l  pro_sup_l  wrist_flex_l  wrist_dev_l
7.7660	-9.8837	2.4299	-12.6669	0.0000	1.2500	-0.0000	43.6159	-0.9178	-8.0529	57.3817	-12.0212	-1.3209	0.0000	82.7804	-10.0224	4.3673	99.8719	1.3396	-5.8877	-0.0000	-15.2958	-2.8379	-0.2023	83.9183	7.9426	20.2788	17.4300	115.1070	-12.4902	-3.1865	88.9618	-8.7395	21.5522	24.5885	125.3241	-22.1361	-4.7884	
7.7830	-9.8298	2.3795	-12.2461	0.0000	1.2500	-0.0000	45.0916	-0.2633	-6.0583	63.3566	-11.2207	-2.0868	-0.0000	81.6183	-9.0137	3.7583	94.9001	1.1983	-5.7955	0.0000	-15.3374	-2.6489	-0.3424	83.8820	7.8837	20.4266	17.4922	114.9108	-12.4718	-3.1244	89.0758	-8.7076	21.4796	24.4699	125.3734	-22.0371	-4.7254	
7.7990	-9.7561	2.3298	-11.8890	0.0000	1.2500	-0.0000	46.9680	0.4530	-4.2120	69.5957	-10.5981	-2.6520	0.0000	79.7050	-8.1401	2.9598	89.5422	0.8919	-5.6394	0.0000	-15.3738	-2.4642	-0.4654	83.8784	7.8831	20.5427	17.5008	114.7883	-12.4384	-3.0580	89.1464	-8.6829	21.3549	24.3177	125.4379	-21.9870	-4.7016	
7.8160	-9.6468	2.3080	-11.6219	0.0000	1.2500	-0.0000	49.2676	1.1470	-2.6299	76.0586	-10.3106	-2.8869	0.0000	76.9643	-7.4212	2.0264	83.8343	0.4956	-5.4604	0.0000	-15.4122	-2.3002	-0.5609	83.9197	7.9416	20.5897	17.4653	114.7783	-12.3949	-2.9936	89.1856	-8.6708	21.0582	24.1255	125.6371	-21.9825	-4.7246	
7.8330	-9.5174	2.2867	-11.4185	0.0000	1.2500	-0.0000	51.9753	1.9230	-1.2146	82.7721	-10.1792	-2.8804	0.0000	73.4782	-6.7856	0.9230	77.7140	-0.0658	-5.1783	0.0000	-15.4461	-2.1408	-0.6397	83.9935	8.0583	20.6046	17.3764	114.8420	-12.3365	-2.9250	89.1810	-8.6667	20.7096	23.9003	125.8524	-22.0268	-4.7866	
7.8490	-9.4295	2.2794	-11.3317	0.0000	1.2500	-0.0000	54.8449	2.7928	-0.3482	89.0398	-9.8605	-3.0176	0.0000	69.5368	-6.2759	-0.4153	71.4924	-0.7177	-4.8220	0.0000	-15.4538	-2.0166	-0.6926	84.0665	8.2201	20.6178	17.2599	114.9732	-12.2758	-2.8534	89.1101	-8.6867	20.5765	23.6944	125.8507	-22.1398	-4.9069	
7.8660	-9.4136	2.3010	-11.4210	0.0000	1.2500	-0.0000	57.8837	3.7347	-0.3812	94.7583	-9.4088	-3.4821	-0.0000	64.9894	-5.8713	-2.2615	64.9828	-1.3455	-4.4080	-0.0000	-15.4208	-1.9478	-0.7094	84.1221	8.4508	20.6344	17.1134	115.1945	-12.2152	-2.7785	88.9563	-8.7340	20.8271	23.5037	125.4761	-22.3546	-5.1123	
7.8830	-9.4392	2.3369	-11.6269	0.0000	1.2500	-0.0000	61.1131	4.6866	-0.9926	100.0895	-8.7838	-4.1169	0.0000	59.9931	-5.4509	-4.3773	58.3481	-2.0704	-3.9304	0.0000	-15.3624	-1.9139	-0.7001	84.1761	8.7265	20.6488	16.9382	115.4829	-12.1526	-2.7012	88.7369	-8.8044	21.2932	23.3246	124.8802	-22.6400	-5.3791	
7.8990	-9.4756	2.3549	-11.8238	0.0000	1.2500	-0.0000	64.3030	5.6086	-1.5379	104.7182	-7.5025	-4.8137	-0.0000	55.2853	-5.0309	-6.0732	52.4356	-3.1765	-3.3903	0.0000	-15.3021	-1.8855	-0.6859	84.2435	8.9626	20.6750	16.7649	115.7637	-12.0943	-2.6243	88.4809	-8.9010	21.7372	23.2146	124.2940	-22.9177	-5.6482	
7.9160	-9.5141	2.3482	-11.9703	0.0000	1.2500	-0.0000	67.4262	6.5367	-1.7593	108.6199	-5.0902	-5.5288	0.0000	50.9599	-4.7678	-7.0757	47.3358	-5.0235	-2.7062	0.0000	-15.2389	-1.8536	-0.6781	84.3232	9.1536	20.7840	16.5696	115.9778	-12.0315	-2.5652	88.1861	-9.0371	22.0614	23.2002	123.8179	-23.1656	-5.9202	
7.9330	-9.5631	2.3236	-12.1078	0.0000	1.2500	-0.0000	70.5058	7.4582	-1.9091	111.7851	-2.0167	-6.2907	-0.0000	46.8964	-4.6510	-7.6945	42.9725	-7.2617	-1.9346	0.0000	-15.1736	-1.8272	-0.6654	84.4166	9.3055	20.9051	16.3754	116.1848	-11.9732	-2.5069	87.8543	-9.1984	22.3632	23.2600	123.3543	-23.4055	-6.1925	
7.9490	-9.6181	2.2686	-12.2345	0.0000	1.2500	-0.0000	73.3773	8.2981	-2.0837	113.8901	0.7940	-7.0906	0.0000	43.5003	-4.5701	-8.1066	39.9540	-9.1026	-1.2880	0.0000	-15.1332	-1.8036	-0.6347	84.5449	9.3504	20.8407	16.2823	116.4884	-11.9525	-2.3994	87.5194	-9.3471	22.6981	23.3851	122.8401	-23.6221	-6.3990	
7.9660	-9.6882	2.1584	-12.3522	0.0000	1.2500	-0.0000	76.1147	9.0411	-2.2551	114.8098	3.1175	-7.9982	-0.0000	40.8409	-4.5005	-8.3443	38.4356	-10.1881	-0.8696	-0.0000	-15.1238	-1.7796	-0.5697	84.7172	9.2349	20.4436	16.3520	116.9844	-11.9949	-2.1969	87.1520	-9.4746	23.1568	23.6070	122.1670	-23.8145	-6.5039	
7.9830	-9.7640	2.0177	-12.4593	0.0000	1.2500	-0.0000	78.6428	9.6988	-2.4297	114.6747	5.1850	-8.9181	-0.0000	38.8453	-4.5159	-8.3849	38.2594	-10.8685	-0.5770	0.0000	-15.1390	-1.7588	-0.4866	84.9245	9.0121	19.8618	16.5130	117.5744	-12.0750	-1.9441	86.7826	-9.5922	23.6490	23.8929	121.4445	-23.9820	-6.5427	
7.9990	-9.8125	1.9093	-12.5493	0.0000	1.2500	-0.0000	80.5724	10.2273	-2.7342	113.5492	6.7582	-9.6202	-0.0000	37.7124	-4.6277	-8.3034	39.5595	-11.4073	-0.3347	-0.0000	-15.1867	-1.7484	-0.4219	85.1617	8.7728	19.3394	16.6716	118.0718	-12.1490	-1.7257	86.5345	-9.6906	23.9587	24.1369	120.9350	-24.1087	-6.5562	
8.0160	-9.8131	1.8501	-12.6138	0.0000	1.2500	-0.0000	81.8300	10.6288	-3.2583	111.3571	7.6965	-10.0436	0.0000	37.6339	-4.8436	-8.1882	42.6660	-11.8902	-0.1315	-0.0000	-15.2934	-1.7441	-0.3911	85.4644	8.4818	18.9550	16.8277	118.4158	-12.2114	-1.5766	86.4977	-9.7577	23.9214	24.3064	120.8195	-24.1831	-6.5461	
8.0330	-9.7866	1.8235	-12.6609	0.0000	1.2500	-0.0000	82.4838	10.9060	-3.8823	108.1649	8.1452	-10.2939	-0.0000	38.4200	-5.1545	-7.9396	47.2481	-12.2232	-0.0060	-0.0000	-15.4327	-1.7503	-0.3787	85.7972	8.1746	18.6303	16.9896	118.6680	-12.2674	-1.4617	86.5814	-9.8030	23.7021	24.4380	120.9163	-24.2166	-6.5102	
8.0490	-9.7615	1.8412	-12.7079	0.0000	1.2500	-0.0000	82.3534	11.0245	-4.4116	104.2481	8.2928	-10.4018	0.0000	39.6996	-5.5325	-7.3464	52.4470	-12.4016	0.0435	-0.0000	-15.5332	-1.7872	-0.3744	86.0510	8.0458	18.3731	17.0858	118.8291	-12.2895	-1.3621	86.6365	-9.8480	23.5788	24.5302	120.9427	-24.2279	-6.4843	
8.0660	-9.7543	1.9213	-12.8018	0.0000	1.2500	-0.0000	81.3076	10.9879	-4.7525	99.5379	8.2420	-10.3370	0.0000	41.4148	-5.9676	-6.1826	58.1736	-12.4101	-0.0020	-0.0000	-15.5603	-1.8756	-0.3723	86.2044	8.2152	18.1457	17.0516	118.9299	-12.2486	-1.2513	86.5890	-9.9179	23.6967	24.5609	120.7340	-24.2139	-6.4880	
8.0830	-9.7488	2.0457	-12.8957	0.0000	1.2500	-0.0000	79.4743	10.8025	-4.9980	94.0828	7.8855	-10.1389	0.0000	43.6364	-6.4205	-4.6610	64.5195	-12.2657	-0.1324	0.0000	-15.5486	-1.9946	-0.3782	86.2807	8.5621	17.9841	16.9551	118.9410	-12.1739	-1.1560	86.5132	-9.9875	23.9106	24.5508	120.4548	-24.1778	-6.5015	
8.0990	-9.7255	2.1729	-12.8647	0.0000	1.2500	-0.0000	77.0644	10.4435	-5.2474	88.3449	7.0976	-9.9164	-0.0000	46.1837	-6.8300	-3.2394	70.9065	-12.0139	-0.2875	0.0000	-15.5312	-2.1016	-0.3997	86.2359	8.9209	18.0082	16.9225	118.7742	-12.1251	-1.1361	86.4810	-10.0033	24.0625	24.5632	120.3164	-24.1481	-6.5018	
8.1160	-9.6682	2.2940	-12.6328	0.0000	1.2500	-0.0000	74.0443	9.8953	-5.6137	82.3468	5.7586	-9.7416	-0.0000	49.0374	-7.1792	-2.0924	77.3319	-11.5527	-0.4803	0.0000	-15.5190	-2.1827	-0.4408	85.9963	9.2612	18.3965	17.0594	118.2747	-12.1312	-1.2157	86.5099	-9.9454	24.0877	24.6476	120.4020	-24.1398	-6.4789	
8.1330	-9.5921	2.4172	-12.2763	0.0000	1.2500	-0.0000	70.4559	9.1974	-6.0471	76.0612	3.9903	-9.5327	0.0000	52.2166	-7.4708	-1.0593	83.8061	-10.9893	-0.7036	0.0000	-15.5017	-2.2521	-0.4976	85.6330	9.6142	18.9731	17.2472	117.6011	-12.1644	-1.3721	86.5816	-9.8336	24.0500	24.7550	120.6274	-24.1377	-6.4427	
8.1490	-9.5249	2.5267	-11.8992	0.0000	1.2500	-0.0000	66.6226	8.4001	-6.3995	69.9027	2.0308	-9.1604	0.0000	55.5908	-7.7061	-0.0985	89.7598	-10.6736	-0.8406	0.0000	-15.4808	-2.3087	-0.5668	85.3206	9.9085	19.3264	17.2867	117.1292	-12.1988	-1.5944	86.7140	-9.6740	23.9840	24.8023	120.9541	-24.1258	-6.4001	
8.1660	-9.4769	2.6088	-11.5153	0.0000	1.2500	-0.0000	62.4605	7.4787	-6.6442	63.7862	-0.1140	-8.5563	-0.0000	59.2181	-7.9115	0.7688	95.0922	-10.9975	-0.7593	0.0000	-15.4607	-2.3473	-0.6557	85.1471	10.1209	19.1744	17.0611	117.0977	-12.2306	-1.8957	86.9313	-9.4545	23.8678	24.7921	121.4154	-24.1005	-6.3358	
8.1830	-9.4380	2.6774	-11.1108	0.0000	1.2500	-0.0000	58.0554	6.4517	-6.8509	57.8448	-2.4591	-7.7814	0.0000	63.0360	-8.0617	1.5557	99.8797	-11.5647	-0.5567	-0.0000	-15.4368	-2.3734	-0.7573	85.0270	10.2759	18.7977	16.7012	117.2613	-12.2634	-2.2625	87.2094	-9.1861	23.7238	24.7226	121.9792	-24.0653	-6.2652	
